<svg width="177" height="27" viewBox="0 0 177 27" fill="none" xmlns="http://www.w3.org/2000/svg">
<g clip-path="url(#clip0_2099_2375)">
<path d="M71.0415 26.3312H68.5315V17.3712C68.5315 14.0412 67.3115 12.3712 64.8815 12.3712C63.6215 12.3712 62.5815 12.8412 61.7615 13.7912C60.9415 14.7412 60.5315 15.9312 60.5315 17.3712V26.3312H58.0215V10.6312H60.5315V13.2412H60.5915C61.7815 11.2612 63.4915 10.2712 65.7415 10.2712C67.4615 10.2712 68.7715 10.8212 69.6815 11.9312C70.5915 13.0412 71.0415 14.6412 71.0415 16.7412V26.3412V26.3312Z" fill="black"/>
<path d="M86.6119 26.3312H84.1019V23.8812H84.0419C82.9519 25.7612 81.3419 26.7012 79.2119 26.7012C77.6419 26.7012 76.4219 26.2912 75.5419 25.4612C74.6619 24.6312 74.2119 23.5312 74.2119 22.1612C74.2119 19.2312 75.9419 17.5212 79.3919 17.0412L84.1019 16.3812C84.1019 13.7112 83.0219 12.3812 80.8619 12.3812C78.9719 12.3812 77.2619 13.0212 75.7419 14.3112V11.7312C77.2819 10.7512 79.0619 10.2612 81.0819 10.2612C84.7719 10.2612 86.6219 12.2112 86.6219 16.1212V26.3312H86.6119ZM84.1019 18.3912L80.3119 18.9112C79.1419 19.0712 78.2719 19.3612 77.6719 19.7812C77.0819 20.1912 76.7819 20.9312 76.7819 21.9812C76.7819 22.7512 77.0519 23.3712 77.6019 23.8612C78.1519 24.3512 78.8819 24.5912 79.7819 24.5912C81.0319 24.5912 82.0619 24.1512 82.8719 23.2812C83.6819 22.4112 84.0919 21.3012 84.0919 19.9612V18.4012L84.1019 18.3912Z" fill="black"/>
<path d="M103.972 26.3312H101.462V17.3712C101.462 14.0412 100.242 12.3712 97.8121 12.3712C96.5521 12.3712 95.5122 12.8412 94.6922 13.7912C93.8722 14.7412 93.4622 15.9312 93.4622 17.3712V26.3312H90.9521V10.6312H93.4622V13.2412H93.5221C94.7121 11.2612 96.4221 10.2712 98.6721 10.2712C100.392 10.2712 101.702 10.8212 102.612 11.9312C103.522 13.0412 103.972 14.6412 103.972 16.7412V26.3412V26.3312Z" fill="black"/>
<path d="M115.001 26.7012C112.681 26.7012 110.831 25.9712 109.441 24.5012C108.051 23.0312 107.361 21.0912 107.361 18.6712C107.361 16.0312 108.081 13.9712 109.521 12.4912C110.961 11.0112 112.911 10.2712 115.361 10.2712C117.811 10.2712 119.531 10.9912 120.841 12.4312C122.151 13.8712 122.811 15.8712 122.811 18.4312C122.811 20.9912 122.101 22.9412 120.691 24.4512C119.271 25.9612 117.371 26.7112 114.991 26.7112L115.001 26.7012ZM115.181 12.3812C113.561 12.3812 112.291 12.9312 111.351 14.0312C110.411 15.1312 109.941 16.6412 109.941 18.5812C109.941 20.5212 110.421 21.9112 111.371 22.9812C112.321 24.0512 113.591 24.5912 115.191 24.5912C116.791 24.5912 118.071 24.0612 118.941 23.0112C119.811 21.9612 120.251 20.4612 120.251 18.5212C120.251 16.5812 119.811 15.0412 118.941 13.9812C118.071 12.9212 116.821 12.3912 115.191 12.3912L115.181 12.3812Z" fill="black"/>
<path d="M125.452 25.7612V23.0612C126.822 24.0712 128.332 24.5812 129.972 24.5812C132.182 24.5812 133.282 23.8412 133.282 22.3712C133.282 21.9512 133.192 21.6012 133.002 21.3012C132.812 21.0112 132.562 20.7512 132.232 20.5312C131.912 20.3112 131.532 20.1012 131.102 19.9212C130.672 19.7412 130.202 19.5512 129.702 19.3612C129.002 19.0812 128.392 18.8112 127.872 18.5212C127.342 18.2412 126.902 17.9212 126.552 17.5712C126.202 17.2212 125.932 16.8212 125.752 16.3712C125.572 15.9212 125.482 15.3912 125.482 14.7912C125.482 14.0512 125.652 13.4012 125.992 12.8312C126.332 12.2612 126.782 11.7912 127.342 11.4012C127.902 11.0212 128.542 10.7312 129.262 10.5312C129.982 10.3412 130.722 10.2412 131.492 10.2412C132.852 10.2412 134.072 10.4812 135.142 10.9512V13.5012C133.982 12.7412 132.662 12.3712 131.152 12.3712C130.682 12.3712 130.252 12.4212 129.882 12.5312C129.502 12.6412 129.182 12.7912 128.912 12.9812C128.642 13.1712 128.432 13.4112 128.282 13.6812C128.132 13.9512 128.062 14.2512 128.062 14.5812C128.062 14.9912 128.132 15.3312 128.282 15.6112C128.432 15.8912 128.652 16.1312 128.932 16.3512C129.222 16.5612 129.562 16.7612 129.972 16.9312C130.382 17.1012 130.842 17.2912 131.372 17.5012C132.072 17.7712 132.692 18.0412 133.242 18.3212C133.792 18.6012 134.262 18.9212 134.652 19.2712C135.042 19.6212 135.342 20.0312 135.552 20.4912C135.762 20.9512 135.872 21.5012 135.872 22.1312C135.872 22.9112 135.702 23.5812 135.362 24.1512C135.022 24.7212 134.562 25.2012 133.992 25.5812C133.422 25.9612 132.762 26.2412 132.012 26.4212C131.262 26.6012 130.482 26.7012 129.662 26.7012C128.042 26.7012 126.642 26.3912 125.462 25.7712L125.452 25.7612Z" fill="black"/>
<path d="M151.962 26.3311H149.452V23.8511H149.392C148.352 25.7511 146.732 26.7011 144.542 26.7011C140.802 26.7011 138.932 24.4711 138.932 20.0111V10.6311H141.432V19.6211C141.432 22.9311 142.702 24.5911 145.232 24.5911C146.462 24.5911 147.472 24.1411 148.262 23.2311C149.052 22.3211 149.452 21.1411 149.452 19.6811V10.6311H151.962V26.3311Z" fill="black"/>
<path d="M164.672 13.1711C164.232 12.8311 163.602 12.6611 162.772 12.6611C161.702 12.6611 160.802 13.1711 160.082 14.1811C159.362 15.1911 159.002 16.5711 159.002 18.3211V26.3211H156.492V10.6211H159.002V13.8611H159.062C159.422 12.7611 159.962 11.8911 160.702 11.2811C161.442 10.6611 162.262 10.3511 163.172 10.3511C163.822 10.3511 164.332 10.4211 164.672 10.5611V13.1711Z" fill="black"/>
<path d="M175.931 5.29122C175.441 5.01122 174.881 4.88122 174.261 4.88122C172.501 4.88122 171.621 5.99122 171.621 8.21122V10.6312H175.301V12.7812H171.621V26.3412H169.121V12.7812H166.441V10.6312H169.121V8.08122C169.121 6.43122 169.601 5.13122 170.551 4.18122C171.501 3.22122 172.691 2.75122 174.111 2.75122C174.881 2.75122 175.491 2.84122 175.941 3.03122V5.30122L175.931 5.29122Z" fill="black"/>
<path d="M22.3318 26.7011C25.3859 26.7011 27.8618 24.2252 27.8618 21.1711C27.8618 18.117 25.3859 15.6411 22.3318 15.6411C19.2776 15.6411 16.8018 18.117 16.8018 21.1711C16.8018 24.2252 19.2776 26.7011 22.3318 26.7011Z" fill="black"/>
<path d="M5.46146 21.8812C5.04146 21.8812 4.62146 21.7912 4.21146 21.6012C2.72146 20.9112 2.07146 19.1412 2.76146 17.6512C2.92146 17.3012 3.07146 16.9212 3.21146 16.5112C3.35146 16.0912 3.46146 15.7012 3.54146 15.3012C3.63146 14.8812 3.69146 14.5012 3.73146 14.1312C3.78146 13.6512 3.80146 13.2412 3.80146 12.8712C3.80146 12.4912 3.77146 12.0812 3.72146 11.6312C3.68146 11.2112 3.58146 10.7612 3.50146 10.3812C3.42146 10.0212 3.29146 9.63121 3.16146 9.23121C3.04146 8.88121 2.89146 8.51121 2.68146 8.08121C2.53146 7.77121 2.35146 7.44121 2.09146 7.02121C1.88146 6.67121 1.65146 6.34121 1.41146 6.05121L1.18146 5.77121C0.131458 4.49121 0.321458 2.61121 1.59146 1.57121C2.86146 0.531211 4.74146 0.721211 5.78146 1.99121L6.01146 2.27121C6.43146 2.78121 6.82146 3.34121 7.18146 3.93121C7.54146 4.52121 7.81146 5.02121 8.04146 5.50121C8.35146 6.15121 8.60146 6.76121 8.80146 7.34121C8.98146 7.87121 9.16146 8.44121 9.30146 9.08121C9.42146 9.62121 9.55146 10.2712 9.63146 10.9812C9.70146 11.6212 9.74146 12.2112 9.74146 12.7712C9.74146 13.3812 9.72146 14.0212 9.64146 14.7312C9.58146 15.3212 9.48146 15.9112 9.35146 16.5412C9.22146 17.1512 9.05146 17.7512 8.84146 18.3812C8.63146 19.0112 8.41146 19.5812 8.15146 20.1412C7.65146 21.2312 6.57146 21.8712 5.45146 21.8712L5.46146 21.8812Z" fill="black"/>
<path d="M3.48179 26.7011C3.13179 26.7011 2.78179 26.6411 2.43179 26.5111C0.891786 25.9311 0.111786 24.2111 0.691786 22.6811L0.901786 22.1111C1.07179 21.6511 1.24179 21.1911 1.42179 20.7411C1.68179 20.1011 1.95179 19.4611 2.23179 18.8311C2.40179 18.4511 2.57179 18.0611 2.74179 17.6811C2.96179 17.2011 3.20179 16.7311 3.45179 16.2611C3.70179 15.8011 3.95179 15.3511 4.22179 14.9111C4.49179 14.4711 4.78179 14.0311 5.08179 13.6211L5.23179 13.4211C5.48179 13.0711 5.73179 12.7311 6.00179 12.4011L6.15179 12.2111C6.43179 11.8711 6.71179 11.5211 7.01179 11.2011C7.32179 10.8711 7.63179 10.5511 7.95179 10.2211L8.04179 10.1311C8.33179 9.83114 8.65179 9.55114 8.96179 9.28114L9.19179 9.08114C9.53179 8.77114 9.89179 8.49114 10.2518 8.21114L10.3718 8.11114C10.7918 7.78114 11.2218 7.47114 11.6618 7.18114C12.1018 6.89114 12.5418 6.61114 12.9918 6.34114L13.2918 6.16114C13.2918 6.16114 13.3218 6.14114 13.3318 6.13114L13.5118 6.03114C13.8918 5.82114 14.2718 5.61114 14.6518 5.41114C15.1118 5.17114 15.5718 4.94114 16.0418 4.72114C16.4918 4.51114 16.9418 4.31114 17.4018 4.11114C17.7618 3.95114 18.1318 3.81114 18.5018 3.66114L18.8018 3.54114C19.3118 3.34114 19.8318 3.14114 20.3518 2.98114L20.5918 2.90114C20.9918 2.77114 21.3918 2.65114 21.7918 2.53114C22.2918 2.38114 22.8018 2.24114 23.3118 2.11114C23.8018 1.99114 24.3018 1.88114 24.7918 1.77114C25.2518 1.67114 25.7118 1.59114 26.1718 1.51114L26.3218 1.48114C26.8418 1.39114 27.3618 1.32114 27.8818 1.25114C28.4018 1.18114 28.9118 1.12114 29.4318 1.08114C29.9518 1.03114 30.4618 0.991143 30.9718 0.971143H31.2618C31.6618 0.941143 32.0718 0.921143 32.4718 0.921143C32.9718 0.921143 33.4618 0.921143 33.9618 0.931143H34.0718C34.5518 0.941143 35.0318 0.951143 35.5118 0.991143C35.8418 1.01114 36.1618 1.04114 36.4918 1.07114L36.9718 1.11114C37.5118 1.16114 38.0618 1.22114 38.6018 1.30114L39.0218 1.36114C39.4018 1.41114 39.7718 1.47114 40.1418 1.54114L40.3818 1.59114C40.7818 1.67114 41.1918 1.75114 41.5918 1.84114C42.1118 1.95114 42.6318 2.08114 43.1418 2.21114L43.8018 2.39114C45.0118 2.71114 45.9318 3.75114 46.1018 5.00114C46.1618 5.44114 46.1918 6.53114 45.3118 7.51114C45.2018 7.63114 45.0718 7.75114 44.9418 7.86114C44.8318 7.94114 44.7318 8.02114 44.6118 8.09114C44.1918 8.35114 43.8418 8.60114 43.5418 8.85114C43.1318 9.18114 42.7818 9.51114 42.4618 9.84114C42.1218 10.2011 41.8218 10.5511 41.5618 10.9011C41.2818 11.2911 41.0318 11.6811 40.8118 12.0511C40.5818 12.4611 40.3818 12.8711 40.1918 13.3211L40.1418 13.4411C40.1018 13.5511 40.0618 13.6611 40.0218 13.7811C39.9718 13.9211 39.8918 14.1811 39.8218 14.5711C39.7718 14.8611 39.7518 15.1611 39.7518 15.4611C39.7518 15.6111 39.7518 15.7611 39.7718 15.9111V16.0311C39.7818 16.1111 39.8018 16.2011 39.8118 16.2811L39.8418 16.4911C39.8618 16.6411 39.9118 16.8911 40.0318 17.2411C40.1418 17.5411 40.2718 17.8411 40.4218 18.1311C40.5618 18.3911 40.7218 18.6511 40.9118 18.8911C41.0818 19.1111 41.2818 19.3311 41.5318 19.5611C41.6418 19.6611 41.7518 19.7511 41.8618 19.8411C41.9318 19.9011 42.0218 19.9511 42.1018 20.0111L42.3218 20.1711C42.5618 20.3411 42.9318 20.5111 43.0518 20.5611C43.2718 20.6611 43.5518 20.7511 43.9318 20.8611C45.5218 21.2911 46.4518 22.9311 46.0118 24.5211C45.5818 26.1011 43.9318 27.0411 42.3518 26.6011C41.9218 26.4811 41.2718 26.2911 40.6018 25.9911C39.8918 25.6711 39.3318 25.3611 38.8318 25.0011L38.6818 24.9011C38.5018 24.7811 38.3318 24.6511 38.1618 24.5211C37.9118 24.3211 37.6718 24.1211 37.4418 23.9111C36.9618 23.4611 36.5518 23.0211 36.1918 22.5511C35.7918 22.0311 35.4318 21.4811 35.1318 20.9111C34.8518 20.3711 34.6018 19.8111 34.4018 19.2411C34.1618 18.5811 34.0018 17.9311 33.9218 17.3011L33.9018 17.1511C33.8618 16.8711 33.8218 16.5911 33.8118 16.3111V16.2011C33.7918 15.9611 33.7818 15.7111 33.7818 15.4711C33.7818 14.8411 33.8318 14.2211 33.9318 13.6111C34.0518 12.9011 34.2218 12.2511 34.4418 11.6711L34.5118 11.4611C34.5118 11.4611 34.5418 11.3811 34.5518 11.3411C34.5718 11.3011 34.5818 11.2511 34.6018 11.2111L34.6818 11.0211C34.9618 10.3711 35.2618 9.74114 35.5918 9.15114C35.9218 8.57114 36.3018 7.98114 36.7218 7.40114C36.7918 7.30114 36.8718 7.20114 36.9518 7.10114C36.7818 7.08114 36.6118 7.06114 36.4318 7.05114L35.9118 7.00114C35.6318 6.97114 35.3418 6.95114 35.0618 6.93114C34.6818 6.90114 34.2918 6.90114 33.9118 6.89114H33.8018C33.3718 6.88114 32.9418 6.87114 32.5018 6.88114C32.1618 6.88114 31.8318 6.90114 31.4918 6.91114H31.1918C30.7718 6.94114 30.3418 6.98114 29.9218 7.02114C29.4818 7.06114 29.0518 7.11114 28.6118 7.16114C28.1718 7.22114 27.7418 7.28114 27.3018 7.35114L27.1418 7.38114C26.7718 7.44114 26.4018 7.51114 26.0318 7.59114C25.5818 7.69114 25.1218 7.80114 24.6718 7.91114C24.2518 8.01114 23.8418 8.13114 23.4218 8.25114C23.0618 8.36114 22.7018 8.47114 22.3518 8.58114L22.1118 8.66114C21.7218 8.79114 21.3218 8.93114 20.9418 9.08114L20.6218 9.20114C20.3118 9.32114 20.0018 9.44114 19.6918 9.58114C19.2818 9.76114 18.8718 9.94114 18.4718 10.1311C18.0818 10.3111 17.7018 10.5011 17.3318 10.7011C17.0118 10.8711 16.6918 11.0411 16.3818 11.2211L15.9318 11.4811C15.5818 11.6811 15.2418 11.9011 14.9118 12.1311C14.6018 12.3411 14.2918 12.5611 14.0018 12.7911L13.8818 12.8911C13.6218 13.1011 13.3518 13.3011 13.1018 13.5211L12.8318 13.7511C12.6318 13.9211 12.4318 14.1011 12.2518 14.2811L12.1618 14.3711C11.8818 14.6511 11.6018 14.9411 11.3318 15.2311C11.1118 15.4611 10.9118 15.7111 10.7118 15.9611L10.5518 16.1611C10.3618 16.3911 10.1918 16.6411 10.0118 16.8811L9.85179 17.1011C9.64179 17.3911 9.43179 17.7011 9.24179 18.0111C9.03179 18.3511 8.83179 18.6911 8.65179 19.0511C8.46179 19.4111 8.27179 19.7711 8.10179 20.1411C7.94179 20.4911 7.79179 20.8311 7.64179 21.1811C7.38179 21.7811 7.12179 22.3811 6.88179 22.9911C6.72179 23.3711 6.58179 23.7611 6.44179 24.1511L6.21179 24.7711C5.76179 25.9611 4.63179 26.7011 3.42179 26.7011H3.48179Z" fill="black"/>
</g>
<defs>
<clipPath id="clip0_2099_2375">
<rect width="176" height="26" fill="black" transform="translate(0.5 0.899902)"/>
</clipPath>
</defs>
</svg>
